<svg width="79" height="95" viewBox="0 0 79 95" fill="none" xmlns="http://www.w3.org/2000/svg">
<path d="M78.504 75.976C75.7733 80.328 72.5307 83.912 68.776 86.728C65.1067 89.4587 61.0533 91.5067 56.616 92.872C52.264 94.2373 47.656 94.92 42.792 94.92C36.5627 94.92 30.8453 93.896 25.64 91.848C20.52 89.7147 16.04 86.6427 12.2 82.632C8.44533 78.536 5.544 73.6293 3.496 67.912C1.448 62.1093 0.424 55.496 0.424 48.072C0.424 40.904 1.448 34.4187 3.496 28.616C5.62933 22.8133 8.616 17.8213 12.456 13.64C16.3813 9.37333 21.032 6.13066 26.408 3.91199C31.8693 1.60799 37.9707 0.455994 44.712 0.455994C49.576 0.455994 54.1413 0.925329 58.408 1.864C62.6747 2.80266 66.5147 4.12533 69.928 5.83199C73.4267 7.53866 76.328 9.50133 78.632 11.72L71.976 45H69.672L67.752 26.44C67.24 20.8933 65.96 16.3707 63.912 12.872C61.864 9.28799 59.0053 6.64266 55.336 4.936C51.752 3.14399 47.2293 2.24799 41.768 2.24799C37.8427 2.24799 34.216 3.31466 30.888 5.448C27.56 7.58133 24.7013 10.568 22.312 14.408C20.008 18.1627 18.216 22.5573 16.936 27.592C15.656 32.6267 15.016 38.0453 15.016 43.848C15.016 50.0773 15.7413 55.88 17.192 61.256C18.728 66.632 20.9893 71.3253 23.976 75.336C26.9627 79.2613 30.7173 82.3333 35.24 84.552C39.7627 86.7707 45.0533 87.88 51.112 87.88C56.3173 87.88 61.1813 86.7707 65.704 84.552C70.2267 82.3333 74.0667 79.176 77.224 75.08L78.504 75.976Z" fill="#FE8E8E"/>
</svg>
