<svg width="204" height="39" viewBox="0 0 204 39" fill="none" xmlns="http://www.w3.org/2000/svg">
<path d="M24.72 24.68C23.8667 26.04 22.8533 27.16 21.68 28.04C20.5333 28.8933 19.2667 29.5333 17.88 29.96C16.52 30.3867 15.08 30.6 13.56 30.6C11.6133 30.6 9.82667 30.28 8.2 29.64C6.6 28.9733 5.2 28.0133 4 26.76C2.82667 25.48 1.92 23.9467 1.28 22.16C0.64 20.3467 0.32 18.28 0.32 15.96C0.32 13.72 0.64 11.6933 1.28 9.88C1.94667 8.06667 2.88 6.50667 4.08 5.2C5.30667 3.86667 6.76 2.85333 8.44 2.16C10.1467 1.44 12.0533 1.08 14.16 1.08C15.68 1.08 17.1067 1.22667 18.44 1.52C19.7733 1.81333 20.9733 2.22667 22.04 2.76C23.1333 3.29333 24.04 3.90667 24.76 4.6L22.68 15H21.96L21.36 9.2C21.2 7.46667 20.8 6.05333 20.16 4.96C19.52 3.84 18.6267 3.01333 17.48 2.48C16.36 1.92 14.9467 1.64 13.24 1.64C12.0133 1.64 10.88 1.97333 9.84 2.64C8.8 3.30667 7.90667 4.24 7.16 5.44C6.44 6.61333 5.88 7.98666 5.48 9.56C5.08 11.1333 4.88 12.8267 4.88 14.64C4.88 16.5867 5.10667 18.4 5.56 20.08C6.04 21.76 6.74667 23.2267 7.68 24.48C8.61333 25.7067 9.78667 26.6667 11.2 27.36C12.6133 28.0533 14.2667 28.4 16.16 28.4C17.7867 28.4 19.3067 28.0533 20.72 27.36C22.1333 26.6667 23.3333 25.68 24.32 24.4L24.72 24.68ZM52.6616 29.6V30H43.9816V29.6L46.0216 29.2V15.84C46.0216 14.24 45.7416 13.04 45.1816 12.24C44.6216 11.44 43.8082 11.04 42.7416 11.04C42.0216 11.04 41.3016 11.2667 40.5816 11.72C39.8882 12.1733 39.2082 12.76 38.5416 13.48C37.9016 14.2 37.3149 14.9733 36.7816 15.8C36.2482 16.6267 35.8216 17.4133 35.5016 18.16V29.2L37.5416 29.6V30H28.8616V29.6L31.1016 29.2V2H28.6216V1.56L35.5016 0.199997V15.96L35.8216 16.24C36.5416 14.8533 37.3549 13.6533 38.2616 12.64C39.1682 11.6 40.1549 10.8 41.2216 10.24C42.2882 9.68 43.4349 9.4 44.6616 9.4C45.7282 9.4 46.6216 9.57333 47.3416 9.92C48.0882 10.24 48.6749 10.7067 49.1016 11.32C49.5549 11.9333 49.8882 12.6667 50.1016 13.52C50.3149 14.3733 50.4216 15.3467 50.4216 16.44V29.2L52.6616 29.6ZM66.3031 9.4C67.8498 9.4 69.1698 9.58666 70.2631 9.96C71.3831 10.3067 72.3031 10.8533 73.0231 11.6C73.7431 12.3467 74.2631 13.2933 74.5831 14.44C74.9031 15.56 75.0631 16.8933 75.0631 18.44V28.6C75.0631 29 75.1431 29.2933 75.3031 29.48C75.4898 29.6667 75.7298 29.76 76.0231 29.76C76.3431 29.76 76.7031 29.6667 77.1031 29.48C77.5298 29.2933 77.9431 29.0533 78.3431 28.76V29.2C78.0231 29.4933 77.6365 29.7467 77.1831 29.96C76.7565 30.1733 76.3031 30.3333 75.8231 30.44C75.3431 30.5467 74.8765 30.6 74.4231 30.6C73.2498 30.6 72.3298 30.2933 71.6631 29.68C70.9965 29.04 70.6631 28.0133 70.6631 26.6C70.6631 26.0667 70.6631 25.68 70.6631 25.44C70.6631 25.1733 70.6631 24.9733 70.6631 24.84C70.6631 24.7067 70.6631 24.56 70.6631 24.4L70.3431 24.16C69.8365 25.1733 69.2231 26.08 68.5031 26.88C67.8098 27.68 67.0231 28.36 66.1431 28.92C65.2898 29.4533 64.4098 29.8667 63.5031 30.16C62.5965 30.4533 61.6898 30.6 60.7831 30.6C59.7965 30.6 58.9031 30.4267 58.1031 30.08C57.3031 29.76 56.6631 29.28 56.1831 28.64C55.7031 27.9733 55.4631 27.16 55.4631 26.2C55.4631 23.9333 56.7565 22.2133 59.3431 21.04C61.9298 19.84 65.7031 19.24 70.6631 19.24C70.6631 16.9733 70.4898 15.1867 70.1431 13.88C69.7965 12.5467 69.1965 11.5867 68.3431 11C67.4898 10.4133 66.3165 10.12 64.8231 10.12C63.8365 10.12 62.9565 10.2133 62.1831 10.4C61.4365 10.56 60.8498 10.76 60.4231 11C60.0231 11.24 59.8231 11.4533 59.8231 11.64C59.8231 11.7733 59.9431 11.92 60.1831 12.08C60.4498 12.2133 60.9165 12.4133 61.5831 12.68C62.8098 13.16 63.4231 13.84 63.4231 14.72C63.4231 15.52 63.0765 16.1333 62.3831 16.56C61.6898 16.96 60.8498 17.16 59.8631 17.16C58.9031 17.16 58.0765 16.9467 57.3831 16.52C56.7165 16.0933 56.3831 15.48 56.3831 14.68C56.3831 14.04 56.6498 13.4133 57.1831 12.8C57.7431 12.16 58.4765 11.5867 59.3831 11.08C60.3165 10.5733 61.3698 10.1733 62.5431 9.88C63.7431 9.56 64.9965 9.4 66.3031 9.4ZM70.6631 19.72C68.1298 19.72 66.0365 20 64.3831 20.56C62.7298 21.0933 61.5031 21.8267 60.7031 22.76C59.9031 23.6933 59.5031 24.7333 59.5031 25.88C59.5031 26.5733 59.6365 27.1467 59.9031 27.6C60.1965 28.0267 60.5831 28.3467 61.0631 28.56C61.5431 28.7733 62.0898 28.88 62.7031 28.88C63.3698 28.88 64.0765 28.76 64.8231 28.52C65.5965 28.2533 66.3565 27.8533 67.1031 27.32C67.8498 26.7867 68.5298 26.12 69.1431 25.32C69.7831 24.4933 70.2898 23.52 70.6631 22.4V19.72ZM80.9328 30V29.6L83.1328 29.12V11.2H80.6928V10.76L87.5328 9.4V15.76L87.8528 16.08C88.2528 15.1733 88.6395 14.36 89.0128 13.64C89.3861 12.92 89.7595 12.32 90.1328 11.84C90.7995 10.9867 91.4928 10.3733 92.2128 10C92.9595 9.6 93.7728 9.4 94.6528 9.4C95.2661 9.4 95.8261 9.52 96.3328 9.76C96.8661 10 97.2928 10.36 97.6128 10.84C97.9595 11.2933 98.1328 11.88 98.1328 12.6C98.1328 13.1333 97.9861 13.6267 97.6928 14.08C97.4261 14.5333 97.0395 14.9067 96.5328 15.2C96.0261 15.4667 95.4128 15.6 94.6928 15.6C94.0528 15.6 93.4795 15.4933 92.9728 15.28C92.4661 15.04 92.0661 14.72 91.7728 14.32C91.5061 13.92 91.3728 13.48 91.3728 13C91.3728 12.7867 91.3861 12.6133 91.4128 12.48C91.4661 12.32 91.5061 12.1733 91.5328 12.04C91.5595 11.88 91.5728 11.76 91.5728 11.68C91.5728 11.4933 91.5061 11.4 91.3728 11.4C91.1061 11.4 90.7861 11.64 90.4128 12.12C90.0661 12.5733 89.6661 13.2533 89.2128 14.16C88.9195 14.6933 88.6261 15.3333 88.3328 16.08C88.0395 16.8267 87.7728 17.6 87.5328 18.4V29.12L89.7728 29.6V30H80.9328ZM100.386 30V29.6L102.586 29.12V11.48H100.146V11.04L106.986 9.68V15.96L107.306 16.24C107.919 14.9333 108.653 13.76 109.506 12.72C110.359 11.68 111.306 10.8667 112.346 10.28C113.413 9.69333 114.546 9.4 115.746 9.4C116.706 9.4 117.546 9.54667 118.266 9.84C118.986 10.1333 119.586 10.5733 120.066 11.16C120.546 11.72 120.893 12.4267 121.106 13.28C121.346 14.1333 121.466 15.12 121.466 16.24V29.12L123.746 29.6V30H114.786V29.6L117.066 29.12V15.84C117.066 14.24 116.786 13.04 116.226 12.24C115.693 11.44 114.879 11.04 113.786 11.04C113.146 11.04 112.493 11.2667 111.826 11.72C111.186 12.1467 110.559 12.72 109.946 13.44C109.333 14.16 108.773 14.9333 108.266 15.76C107.786 16.5867 107.359 17.3867 106.986 18.16V29.12L109.266 29.6V30H100.386ZM129.266 30V29.6L131.546 29.12V15.84C131.546 14.24 131.266 13.04 130.706 12.24C130.146 11.44 129.333 11.04 128.266 11.04C127.599 11.04 126.933 11.2667 126.266 11.72C125.626 12.1467 124.999 12.72 124.386 13.44C123.799 14.16 123.253 14.9333 122.746 15.76C122.239 16.5867 121.813 17.3867 121.466 18.16V15.96L121.786 16.24C122.399 14.9333 123.119 13.76 123.946 12.72C124.799 11.68 125.759 10.8667 126.826 10.28C127.893 9.69333 129.013 9.4 130.186 9.4C131.253 9.4 132.146 9.57333 132.866 9.92C133.613 10.24 134.199 10.7067 134.626 11.32C135.079 11.9333 135.413 12.6667 135.626 13.52C135.839 14.3733 135.946 15.3467 135.946 16.44V29.12L138.386 29.6V30H129.266ZM141.284 30V29.6L143.484 29.12V11.48H141.044V11.04L147.884 9.68V15.96L148.204 16.24C148.818 14.9333 149.551 13.76 150.404 12.72C151.258 11.68 152.204 10.8667 153.244 10.28C154.311 9.69333 155.444 9.4 156.644 9.4C157.604 9.4 158.444 9.54667 159.164 9.84C159.884 10.1333 160.484 10.5733 160.964 11.16C161.444 11.72 161.791 12.4267 162.004 13.28C162.244 14.1333 162.364 15.12 162.364 16.24V29.12L164.644 29.6V30H155.684V29.6L157.964 29.12V15.84C157.964 14.24 157.684 13.04 157.124 12.24C156.591 11.44 155.778 11.04 154.684 11.04C154.044 11.04 153.391 11.2667 152.724 11.72C152.084 12.1467 151.458 12.72 150.844 13.44C150.231 14.16 149.671 14.9333 149.164 15.76C148.684 16.5867 148.258 17.3867 147.884 18.16V29.12L150.164 29.6V30H141.284ZM170.164 30V29.6L172.444 29.12V15.84C172.444 14.24 172.164 13.04 171.604 12.24C171.044 11.44 170.231 11.04 169.164 11.04C168.498 11.04 167.831 11.2667 167.164 11.72C166.524 12.1467 165.898 12.72 165.284 13.44C164.698 14.16 164.151 14.9333 163.644 15.76C163.138 16.5867 162.711 17.3867 162.364 18.16V15.96L162.684 16.24C163.298 14.9333 164.018 13.76 164.844 12.72C165.698 11.68 166.658 10.8667 167.724 10.28C168.791 9.69333 169.911 9.4 171.084 9.4C172.151 9.4 173.044 9.57333 173.764 9.92C174.511 10.24 175.098 10.7067 175.524 11.32C175.978 11.9333 176.311 12.6667 176.524 13.52C176.738 14.3733 176.844 15.3467 176.844 16.44V29.12L179.284 29.6V30H170.164ZM186.623 38.6C185.636 38.6 184.809 38.44 184.143 38.12C183.476 37.8 182.956 37.36 182.583 36.8C182.236 36.2667 182.063 35.6533 182.063 34.96C182.063 34.5333 182.143 34.1733 182.303 33.88C182.489 33.5867 182.729 33.3333 183.023 33.12C183.343 32.9333 183.676 32.7867 184.023 32.68C184.396 32.5733 184.783 32.52 185.183 32.52C185.636 32.52 186.076 32.6 186.503 32.76C186.929 32.92 187.276 33.1467 187.543 33.44C187.809 33.76 187.943 34.16 187.943 34.64C187.943 35.0133 187.889 35.36 187.783 35.68C187.676 36 187.529 36.2933 187.343 36.56C187.183 36.8267 187.049 37.0267 186.943 37.16C186.863 37.32 186.823 37.4533 186.823 37.56C186.823 37.7467 187.116 37.84 187.703 37.84C188.183 37.84 188.676 37.6533 189.183 37.28C189.689 36.9067 190.156 36.36 190.583 35.64C190.929 35.1333 191.303 34.3733 191.703 33.36C192.129 32.3733 192.556 31.2533 192.983 30H190.823L183.063 10.8L180.583 10.4V10H190.263V10.4L187.823 10.76L193.943 26.28H194.423L197.783 16.76C197.889 16.44 197.969 16.0933 198.023 15.72C198.103 15.32 198.143 14.92 198.143 14.52C198.143 14.04 198.076 13.56 197.943 13.08C197.836 12.6 197.636 12.16 197.343 11.76C197.076 11.36 196.689 11.04 196.183 10.8C195.676 10.5333 195.036 10.4 194.263 10.4V10H203.143V10.4L200.623 10.8L193.543 30C192.983 31.5467 192.476 32.84 192.023 33.88C191.569 34.92 191.196 35.6533 190.903 36.08C190.423 36.8533 189.836 37.4667 189.143 37.92C188.449 38.3733 187.609 38.6 186.623 38.6Z" fill="white"/>
</svg>
